HIERARCHY
ROOT Hips
{
	OFFSET 0.000000 0.000000 0.000000
	CHANNELS 6 Xposition Yposition Zposition Yrotation Xrotation Zrotation
	JOINT Chest
	{
		OFFSET 0.000000 -0.009281 11.569106
		CHANNELS 3 Yrotation Xrotation Zrotation
		JOINT Chest2
		{
			OFFSET -0.000000 0.016865 9.269641
			CHANNELS 3 Yrotation Xrotation Zrotation
			JOINT Chest3
			{
				OFFSET -0.000000 0.000001 8.374491
				CHANNELS 3 Yrotation Xrotation Zrotation
				JOINT Chest4
				{
					OFFSET -0.000000 0.000001 8.374493
					CHANNELS 3 Yrotation Xrotation Zrotation
					JOINT Neck
					{
						OFFSET -0.000000 0.000002 12.152554
						CHANNELS 3 Yrotation Xrotation Zrotation
						JOINT Head
						{
							OFFSET -0.000000 0.040101 7.802319
							CHANNELS 3 Yrotation Xrotation Zrotation
							End Site
							{
								OFFSET -0.000000 0.020947 14.853096
							}
						}
					}
					JOINT RightCollar
					{
						OFFSET 2.894404 0.000001 6.791374
						CHANNELS 3 Yrotation Xrotation Zrotation
						JOINT RightShoulder
						{
							OFFSET 13.574684 0.000001 0.000000
							CHANNELS 3 Yrotation Xrotation Zrotation
							JOINT RightElbow
							{
								OFFSET 23.923903 0.000002 0.000000
								CHANNELS 3 Yrotation Xrotation Zrotation
								JOINT RightWrist
								{
									OFFSET 19.846718 0.012767 0.000000
									CHANNELS 3 Yrotation Xrotation Zrotation
									End Site
									{
										OFFSET 14.973145 0.000001 0.000000
									}
								}
							}
						}
					}
					JOINT LeftCollar
					{
						OFFSET -2.894404 0.000001 6.791374
						CHANNELS 3 Yrotation Xrotation Zrotation
						JOINT LeftShoulder
						{
							OFFSET -13.574684 -0.000001 0.000000
							CHANNELS 3 Yrotation Xrotation Zrotation
							JOINT LeftElbow
							{
								OFFSET -23.923903 -0.000002 0.000000
								CHANNELS 3 Yrotation Xrotation Zrotation
								JOINT LeftWrist
								{
									OFFSET -19.846718 0.012763 0.000000
									CHANNELS 3 Yrotation Xrotation Zrotation
									End Site
									{
										OFFSET -14.973145 -0.000001 0.000000
									}
								}
							}
						}
					}
				}
			}
		}
	}
	JOINT RightHip
	{
		OFFSET 9.469263 0.004643 0.045487
		CHANNELS 3 Yrotation Xrotation Zrotation
		JOINT RightKnee
		{
			OFFSET 0.000000 0.002661 -40.478676
			CHANNELS 3 Yrotation Xrotation Zrotation
			JOINT RightAnkle
			{
				OFFSET 0.000000 0.049106 -35.224068
				CHANNELS 3 Yrotation Xrotation Zrotation
				JOINT RightToe
				{
					OFFSET -0.000001 12.539529 -6.151390
					CHANNELS 3 Yrotation Xrotation Zrotation
					End Site
					{
						OFFSET -0.000001 5.044994 -1.291870
					}
				}
			}
		}
	}
	JOINT LeftHip
	{
		OFFSET -9.469263 0.004641 0.045487
		CHANNELS 3 Yrotation Xrotation Zrotation
		JOINT LeftKnee
		{
			OFFSET 0.000000 0.002661 -40.478676
			CHANNELS 3 Yrotation Xrotation Zrotation
			JOINT LeftAnkle
			{
				OFFSET 0.000000 0.049106 -35.224068
				CHANNELS 3 Yrotation Xrotation Zrotation
				JOINT LeftToe
				{
					OFFSET -0.000001 12.539529 -6.151390
					CHANNELS 3 Yrotation Xrotation Zrotation
					End Site
					{
						OFFSET -0.000001 5.044994 -1.291870
					}
				}
			}
		}
	}
}
MOTION
Frames: 8
Frame Time: 0.016667
-32.447781 36.211315 80.868767 -2.219431 1.142096 -90.616912 -1.793279 -2.691010 -0.753115 -0.801719 -1.195572 -0.348091 -0.801719 -1.195571 -0.348091 -0.601949 -0.896224 -0.262628 4.761180 -15.675119 -9.382792 5.431313 7.088806 -15.742760 8.418928 3.676140 -1.609495 46.825738 -17.751617 -13.010090 21.047856 -37.853882 45.289734 -26.902295 38.582168 68.398177 -7.932436 4.383297 -3.500034 -42.660313 -5.536273 15.363833 -40.399295 -57.668735 -20.633460 16.652747 14.568537 -57.097728 -13.837413 22.900712 -6.708241 8.796592 -56.684782 -15.366759 -1.181565 7.695231 12.871416 -2.702444 3.820388 -0.839829 -13.894726 9.352616 -13.561382 -2.302714 -25.017885 8.926755 4.867644 8.183975 9.272850 0.056481 -0.090358 0.005927 
-32.536175 36.245449 80.868568 -2.167313 1.181897 -90.676219 -1.793688 -2.726271 -0.743312 -0.799069 -1.211754 -0.343503 -0.799069 -1.211754 -0.343503 -0.599961 -0.908368 -0.259202 4.754365 -15.595588 -9.382179 5.411802 7.235338 -15.746818 8.403073 3.626609 -1.593215 46.827476 -17.733468 -12.982618 21.074503 -37.852526 45.333437 -26.917514 38.593475 68.400007 -7.924742 4.327327 -3.508359 -42.691647 -5.579483 15.298635 -40.377087 -57.630541 -20.670502 16.648354 14.584170 -57.102181 -13.679611 22.368661 -7.253491 9.267934 -57.506416 -15.591073 -0.810716 7.732480 13.132277 -3.120351 3.934234 -0.944147 -13.927522 9.425963 -13.570325 -2.319248 -24.904029 8.993100 4.801452 8.081511 9.167644 0.106555 -0.077095 0.006380 
-32.622108 36.274788 80.872444 -2.085858 1.226154 -90.752362 -1.793489 -2.730750 -0.733713 -0.797004 -1.215327 -0.340973 -0.797004 -1.215327 -0.340973 -0.598408 -0.911053 -0.257306 4.739747 -15.544396 -9.376702 5.382054 7.328953 -15.743774 8.399798 3.591929 -1.553079 46.823822 -17.727227 -12.987879 21.122768 -37.853175 45.344598 -26.929848 38.602293 68.397951 -7.922143 4.283646 -3.505533 -42.715703 -5.599012 15.266926 -40.372903 -57.618492 -20.691705 16.631118 14.582246 -57.072979 -13.504677 21.885813 -7.750428 9.831552 -58.327787 -15.911308 -0.517513 7.758595 13.624521 -3.472951 4.016406 -1.036568 -13.956948 9.539852 -13.542748 -2.339959 -24.807402 9.037980 4.708802 7.988697 9.137697 0.169108 -0.059127 0.009119 
-32.707977 36.315090 80.880188 -1.981137 1.284506 -90.843913 -1.811049 -2.715756 -0.720194 -0.796792 -1.215107 -0.340949 -0.796791 -1.215108 -0.340949 -0.598249 -0.910887 -0.257287 4.724765 -15.509560 -9.364819 5.355410 7.392556 -15.728380 8.403930 3.586782 -1.508454 46.819086 -17.735889 -13.000944 21.212098 -37.853328 45.318886 -26.947258 38.606555 68.386238 -7.917676 4.306424 -3.497464 -42.722406 -5.600130 15.274861 -40.437616 -57.638976 -20.637565 16.628777 14.547987 -57.046385 -13.328592 21.451498 -8.177665 10.547841 -59.129132 -16.411333 -0.082970 7.663091 13.950868 -3.862980 4.102240 -1.140351 -13.984562 9.662249 -13.494403 -2.379586 -24.671285 9.043742 4.642419 7.871076 9.120319 0.214690 -0.043088 0.008472 
-32.782383 36.354012 80.892509 -1.884421 1.339085 -90.938894 -1.826806 -2.698745 -0.713899 -0.798845 -1.210438 -0.342497 -0.798845 -1.210438 -0.342497 -0.599790 -0.907383 -0.258446 4.710715 -15.490937 -9.345988 5.334474 7.426553 -15.699101 8.407772 3.581096 -1.485420 46.823044 -17.773453 -13.013360 21.314126 -37.843653 45.282317 -26.967282 38.607552 68.373629 -7.912951 4.301007 -3.502982 -42.715467 -5.549678 15.278093 -40.522846 -57.681330 -20.545030 16.606806 14.525075 -57.042502 -13.134484 21.018876 -8.537391 11.409761 -59.871963 -17.123071 0.521531 7.496212 14.398846 -4.330500 4.123792 -1.262869 -13.998729 9.751054 -13.467455 -2.447756 -24.496287 9.077823 4.611408 7.747074 9.090294 0.236386 -0.035375 0.010009 
-32.844349 36.395809 80.908508 -1.794675 1.394882 -91.040998 -1.845335 -2.690478 -0.712095 -0.800762 -1.207248 -0.343864 -0.800762 -1.207248 -0.343864 -0.601229 -0.904988 -0.259471 4.696663 -15.473444 -9.322704 5.315266 7.458654 -15.661494 8.413996 3.587271 -1.450911 46.831882 -17.792706 -13.042706 21.399420 -37.836338 45.263568 -26.987940 38.598680 68.358371 -7.919645 4.323284 -3.491279 -42.708063 -5.562911 15.284304 -40.559665 -57.707736 -20.504575 16.581479 14.516981 -57.063550 -12.921102 20.570819 -8.828654 12.372279 -60.533057 -17.989919 1.414708 7.267229 15.074794 -4.954257 4.047502 -1.420747 -14.004151 9.810847 -13.468704 -2.541999 -24.289630 9.140501 4.605445 7.614051 9.050879 0.241714 -0.028680 0.010600 
-32.893017 36.437061 80.930092 -1.703742 1.475094 -91.157795 -1.885951 -2.682611 -0.711611 -0.803001 -1.203728 -0.344675 -0.803000 -1.203729 -0.344675 -0.602908 -0.902346 -0.260079 4.682098 -15.454978 -9.293895 5.297044 7.492736 -15.613787 8.410859 3.576611 -1.418981 46.853093 -17.790807 -13.058068 21.453923 -37.829535 45.255908 -27.002951 38.592894 68.342716 -7.930023 4.316958 -3.477654 -42.715682 -5.597894 15.283957 -40.520674 -57.707742 -20.540015 16.550709 14.537511 -57.099780 -12.725434 20.105970 -9.090454 13.361356 -61.112851 -18.869499 2.692573 6.988402 15.900050 -5.751172 3.855997 -1.617385 -14.047295 9.859202 -13.493022 -2.611244 -24.066054 9.210090 4.531529 7.454441 9.086116 0.282906 0.001359 0.014180 
-32.931217 36.473816 80.959145 -1.616271 1.547119 -91.295484 -1.922627 -2.684089 -0.700485 -0.811138 -1.201655 -0.338154 -0.811139 -1.201656 -0.338154 -0.608997 -0.900794 -0.255202 4.677595 -15.430784 -9.267689 5.296104 7.538200 -15.567379 8.419328 3.558613 -1.399508 46.896895 -17.788430 -13.078061 21.473556 -37.805350 45.264647 -27.006339 38.594896 68.338262 -7.912679 4.305137 -3.484827 -42.734346 -5.631824 15.275071 -40.490307 -57.684506 -20.587741 16.526105 14.561287 -57.118164 -12.517630 19.629395 -9.350278 14.337293 -61.624480 -19.652664 4.320685 6.723547 16.796866 -6.645044 3.505774 -1.851035 -14.064305 9.926797 -13.495514 -2.675343 -23.908059 9.362349 4.337261 7.312441 8.948817 0.376374 0.060101 0.016191 
